<svg width="19" height="19" viewBox="0 0 19 19" fill="none" xmlns="http://www.w3.org/2000/svg">
<path d="M13.4584 1.58337H5.54171C3.35558 1.58337 1.58337 3.35558 1.58337 5.54171V13.4584C1.58337 15.6445 3.35558 17.4167 5.54171 17.4167H13.4584C15.6445 17.4167 17.4167 15.6445 17.4167 13.4584V5.54171C17.4167 3.35558 15.6445 1.58337 13.4584 1.58337Z" stroke="#17132B" stroke-width="2" stroke-linecap="round" stroke-linejoin="round"/>
<path d="M12.6666 9.00124C12.7643 9.66011 12.6518 10.333 12.345 10.9242C12.0383 11.5154 11.5529 11.9949 10.9579 12.2943C10.363 12.5938 9.68874 12.698 9.03114 12.5922C8.37353 12.4864 7.76603 12.1759 7.29505 11.7049C6.82407 11.2339 6.51359 10.6264 6.40777 9.96883C6.30196 9.31122 6.40619 8.63699 6.70565 8.04204C7.0051 7.44709 7.48454 6.96171 8.07575 6.65494C8.66697 6.34817 9.33986 6.23563 9.99872 6.33333C10.6708 6.43299 11.293 6.74615 11.7734 7.22657C12.2538 7.70699 12.567 8.32918 12.6666 9.00124Z" stroke="#17132B" stroke-width="2" stroke-linecap="round" stroke-linejoin="round"/>
<path d="M13.8541 5.14587H13.8641" stroke="#17132B" stroke-width="2" stroke-linecap="round" stroke-linejoin="round"/>
</svg>
