<svg width="20" height="20" viewBox="0 0 20 20" fill="none" xmlns="http://www.w3.org/2000/svg">
<path d="M12.04 4.00007C12.8214 4.15252 13.5395 4.53468 14.1025 5.09762C14.6654 5.66057 15.0476 6.37869 15.2 7.16009L12.04 4.00007ZM12.04 0.800049C13.6634 0.980399 15.1773 1.70739 16.333 2.86167C17.4888 4.01594 18.2177 5.52888 18.4 7.15209L12.04 0.800049ZM17.6 13.5361V15.9361C17.6009 16.1589 17.5553 16.3795 17.466 16.5836C17.3768 16.7878 17.2459 16.971 17.0817 17.1216C16.9175 17.2723 16.7237 17.3869 16.5126 17.4583C16.3016 17.5297 16.0779 17.5562 15.856 17.5361C13.3943 17.2687 11.0296 16.4275 8.95199 15.0801C7.01904 13.8519 5.38024 12.2131 4.15196 10.2801C2.79994 8.19306 1.95854 5.81687 1.69595 3.34406C1.67595 3.12284 1.70225 2.89987 1.77315 2.68936C1.84405 2.47885 1.958 2.28541 2.10776 2.12135C2.25752 1.9573 2.43979 1.82622 2.64298 1.73647C2.84617 1.64672 3.06583 1.60026 3.28796 1.60005H5.68797C6.07622 1.59623 6.45261 1.73372 6.74699 1.98688C7.04136 2.24005 7.23364 2.59162 7.28798 2.97606C7.38928 3.74412 7.57714 4.49825 7.84798 5.22407C7.95562 5.51042 7.97891 5.82161 7.91511 6.12078C7.8513 6.41996 7.70307 6.69457 7.48798 6.91208L6.47197 7.92809C7.61083 9.93094 9.26915 11.5893 11.272 12.7281L12.288 11.7121C12.5055 11.497 12.7801 11.3488 13.0793 11.285C13.3785 11.2212 13.6897 11.2445 13.976 11.3521C14.7018 11.623 15.456 11.8108 16.224 11.9121C16.6126 11.9669 16.9676 12.1627 17.2213 12.4621C17.475 12.7615 17.6098 13.1438 17.6 13.5361Z" stroke="#CCAB54" stroke-linecap="round" stroke-linejoin="round"/>
</svg>
